<svg xmlns="http://www.w3.org/2000/svg" width="59" height="59" viewBox="0 0 59 59"><g><g><path fill="#b88b58" d="M29.23 58.578C13.26 58.578.314 45.632.314 29.663S13.26.748 29.229.748c15.97 0 28.915 12.946 28.915 28.915 0 15.97-12.946 28.915-28.915 28.915zm0-54.215c-13.974 0-25.3 11.328-25.3 25.3 0 13.973 11.326 25.3 25.3 25.3 13.972 0 25.3-11.327 25.3-25.3 0-13.972-11.328-25.3-25.3-25.3zM47.3 31.471v-3.615h3.615v3.615zm-5.064 12.997l-2.555-2.556 2.555-2.555 2.556 2.555zM40.21 15.7l2.5-2.506 2.5 2.506-2.5 2.505zM27.422 47.735h3.615v3.614h-3.615zm1.807-16.222H12.965a1.807 1.807 0 1 1 0-3.614h14.457V9.785a1.807 1.807 0 1 1 3.615 0v19.921c0 .999-.81 1.807-1.808 1.807zM12.72 15.789l2.556-2.555 2.556 2.555-2.556 2.556zm4.765 26.22l-2.5 2.507-2.501-2.507 2.5-2.506z"/></g></g></svg>