<svg xmlns="http://www.w3.org/2000/svg" width="59" height="58" viewBox="0 0 59 58"><g><g><path fill="#b88b58" d="M58.548 47.06s-5.716 1.146-11.516 2.34c-3.866 4.304-7.715 8.599-7.715 8.599L31.03 43.856c-.47.03-.935.071-1.412.071-.477 0-.943-.042-1.412-.07L19.92 57.998s-3.85-4.295-7.715-8.6C6.404 48.207.688 47.06.688 47.06L9.7 31.678a21.483 21.483 0 0 1-2.29-9.63C7.412 9.967 17.355.17 29.619.17c12.264 0 22.206 9.796 22.206 21.879 0 3.46-.837 6.72-2.29 9.629zm-18.801 4.379s2.776-2.633 5.385-5.168c3.7-1.054 7.435-2.125 7.435-2.125l-5.238-8.94a22.21 22.21 0 0 1-12.373 8.057zM6.669 44.146s3.735 1.071 7.435 2.125a696.949 696.949 0 0 0 5.385 5.168l4.791-8.176a22.209 22.209 0 0 1-12.373-8.056zM29.618 3.76c-9.97 0-18.054 8.1-18.054 18.09 0 9.992 8.083 18.091 18.054 18.091 9.971 0 18.054-8.1 18.054-18.09 0-9.991-8.083-18.091-18.054-18.091zm0 30.746c-6.986 0-12.65-5.663-12.65-12.65 0-6.986 5.664-12.65 12.65-12.65 6.986 0 12.65 5.664 12.65 12.65 0 6.987-5.664 12.65-12.65 12.65zm0-21.686a9.036 9.036 0 1 0 .001 18.072 9.036 9.036 0 0 0-.001-18.072z"/></g></g></svg>