<svg xmlns="http://www.w3.org/2000/svg" width="58" height="58" viewBox="0 0 58 58"><g><g><path fill="#b88b58" d="M29.176 50.77c-1.85 0-3.652-.166-5.405-.457L11.104 58V45.203C4.5 40.567.261 33.456.261 25.47.261 11.498 13.207.17 29.176.17S58.09 11.499 58.09 25.47c0 13.974-12.945 25.3-28.914 25.3zm0-46.985c-13.973 0-25.3 9.71-25.3 21.685 0 7.35 4.275 13.832 10.798 17.754l-.114 8.383 8.507-5.114c1.96.417 3.998.664 6.109.664 13.973 0 25.3-9.71 25.3-21.687 0-11.976-11.327-21.685-25.3-21.685zm14.457 25.3a3.615 3.615 0 1 1 0-7.229 3.615 3.615 0 0 1 0 7.23zm-14.457 0a3.615 3.615 0 1 1 0-7.229 3.615 3.615 0 0 1 0 7.23zm-14.457 0a3.615 3.615 0 1 1 0-7.229 3.615 3.615 0 0 1 0 7.23z"/></g></g></svg>